<svg width="30" height="31" viewBox="0 0 30 31" fill="none" xmlns="http://www.w3.org/2000/svg">
<path fill-rule="evenodd" clip-rule="evenodd" d="M14.9325 2.38033C13.7507 3.56486 12.9752 4.86117 12.606 6.26924L12.5947 6.31236L12.5947 6.31237C12.4149 6.99752 12.2617 7.58161 12.3503 8.39641C12.398 8.8356 12.4726 9.26575 12.5721 9.68544C12.7867 10.5903 12.6428 11.569 12.0315 12.2698L11.6039 12.7599C11.1731 13.2538 10.4817 13.4138 9.84948 13.2412C8.49179 12.8707 7.43503 12.955 6.2517 13.2659C4.8482 13.6346 3.55554 14.4112 2.37374 15.5957C1.33376 16.6381 0.635396 17.7392 0.278661 18.8988C0.0466879 19.6214 -0.040454 20.3298 0.0172331 21.0238C0.0776324 21.7505 0.776762 22.1949 1.50119 22.1386C2.45306 22.0646 3.0845 21.1459 3.27954 20.2079C3.45302 19.3737 3.89149 18.604 4.59495 17.8989C5.59948 16.8921 6.70847 16.4765 7.92192 16.6521C9.11179 16.8278 10.3826 17.5948 11.7342 18.953C13.0741 20.2994 13.8367 21.5757 14.022 22.7819C14.2072 23.9881 13.8094 25.0828 12.8285 26.0659C12.0957 26.8005 11.3142 27.2587 10.4842 27.4406C9.55032 27.6452 8.62095 28.2756 8.54591 29.2319C8.48947 29.9511 8.92647 30.6447 9.64232 30.7104C10.3416 30.7746 11.0579 30.6936 11.7912 30.4675C12.9354 30.0991 14.0275 29.3938 15.0675 28.3514C16.2493 27.1668 17.0248 25.8705 17.394 24.4625L17.4053 24.4194C17.5851 23.7342 17.7383 23.1501 17.6497 22.3353C17.4248 20.2666 16.6049 18.3982 15.3838 16.879C15.1303 16.5635 15.1218 16.1093 15.3878 15.8043C15.6766 15.4732 16.1778 15.4422 16.5285 15.7069C17.6062 16.5203 18.8354 17.1316 20.1505 17.4905C21.5082 17.861 22.565 17.7767 23.7483 17.4659C25.1518 17.0971 26.4445 16.3205 27.6263 15.136C28.6662 14.0936 29.3646 12.9926 29.7213 11.8329C29.9533 11.1103 30.0405 10.4019 29.9828 9.70789C29.9224 8.9812 29.2232 8.5368 28.4988 8.59313C27.5469 8.66713 26.9155 9.58584 26.7205 10.5238C26.547 11.358 26.1085 12.1277 25.405 12.8328C24.4005 13.8396 23.2915 14.2552 22.0781 14.0796C20.8882 13.9039 19.6174 13.1369 18.2658 11.7787C16.9259 10.4323 16.1633 9.15598 15.978 7.94979C15.7928 6.7436 16.1906 5.64893 17.1715 4.66577C17.9043 3.93119 18.6858 3.47298 19.5158 3.29112C20.4497 3.08652 21.379 2.45611 21.4541 1.49981C21.5105 0.780613 21.0735 0.0870298 20.3577 0.0212983C19.6584 -0.0429121 18.9421 0.0380644 18.2088 0.264228C17.0646 0.632574 15.9725 1.33794 14.9325 2.38033Z" fill="#FF4B59"/>
</svg>
