<svg width="79" height="86" viewBox="0 0 79 86" fill="none" xmlns="http://www.w3.org/2000/svg">
<path d="M59.2857 12.1394C56.1713 10.3188 52.5889 12.8154 52.5889 16.423C52.5889 18.4057 53.734 20.1848 55.4021 21.2566C63.5425 26.4871 68.9506 35.5999 68.9506 46.0042C68.9506 62.2662 55.7782 75.4386 39.5161 75.4386C23.2541 75.4386 10.0651 62.2662 10.0651 46.0042C10.0651 35.6002 15.4728 26.4876 23.6129 21.257C25.2814 20.1849 26.4268 18.4054 26.4268 16.4221C26.4268 12.8144 22.8447 10.317 19.7292 12.136C8.07792 18.9386 0.248047 31.5372 0.248047 46.0042C0.248047 67.6813 17.8223 85.2556 39.4995 85.2556C61.1767 85.2556 78.751 67.6813 78.751 46.0042C78.751 31.5397 70.9237 18.9428 59.2857 12.1394ZM39.4995 32.9148C43.1041 32.9148 46.0442 29.9747 46.0442 26.3701V6.75269C46.0442 3.14813 43.1207 0.208008 39.4995 0.208008C35.8783 0.208008 32.9548 3.14813 32.9548 6.75269V26.3867C32.9548 29.9913 35.895 32.9148 39.4995 32.9148Z" fill="white"/>
</svg>
